<svg width="256" height="256" version="1.1" viewBox="0 0 2.56 2.56" xml:space="preserve" xmlns="http://www.w3.org/2000/svg"><path d="m0.512 0c-0.341 0-0.512 0.17-0.512 0.511 0 0.341 0.197 0.511 0.59 0.511h0.19v0.516h-0.19c-0.393 0-0.59 0.17-0.59 0.511 0 0.341 0.171 0.511 0.512 0.511 0.341 0 0.512-0.198 0.512-0.594v-0.195h0.507v0.195c0 0.396 0.171 0.594 0.512 0.594s0.512-0.17 0.512-0.511c0-0.341-0.197-0.511-0.59-0.511h-0.19v-0.944c0-0.234 0.091-0.35 0.273-0.35v-0.243c-0.344 0-0.517 0.198-0.517 0.594v0.944h-0.507v-0.944c0-0.396-0.171-0.594-0.512-0.594zm-0.00483 0.243c0.182 0 0.273 0.117 0.273 0.35v0.195h-0.19c-0.237 0-0.356-0.0909-0.356-0.273 0-0.182 0.091-0.273 0.273-0.273zm0.0828 1.53h0.19v0.195c0 0.234-0.091 0.35-0.273 0.35-0.182 0-0.273-0.0909-0.273-0.273 0-0.182 0.119-0.273 0.356-0.273zm1.18 0h0.19c0.237 0 0.356 0.0909 0.356 0.273 0 0.182-0.091 0.273-0.273 0.273-0.182 0-0.273-0.117-0.273-0.35z" /></svg>
